<svg width="416" height="95" viewBox="0 0 416 95" fill="none" xmlns="http://www.w3.org/2000/svg">
<circle cx="47.2043" cy="47.2043" r="47.2043" fill="#FF64AE"/>
<rect x="58.4437" y="38.9622" width="59.9419" height="16.484" rx="8.24202" fill="#091156"/>
<circle cx="41.9597" cy="38.9623" r="4.49565" fill="white"/>
<circle cx="27.7231" cy="26.2246" r="9.74057" fill="white"/>
<path d="M158.058 44.7889C159.359 45.0662 160.405 45.7169 161.194 46.7409C161.983 47.7435 162.378 48.8955 162.378 50.1969C162.378 52.0742 161.717 53.5675 160.394 54.6769C159.093 55.7649 157.269 56.3089 154.922 56.3089H144.458V33.8449H154.57C156.853 33.8449 158.634 34.3675 159.914 35.4129C161.215 36.4582 161.866 37.8769 161.866 39.6689C161.866 40.9915 161.514 42.0902 160.81 42.9649C160.127 43.8395 159.21 44.4475 158.058 44.7889ZM149.93 42.9329H153.514C154.41 42.9329 155.093 42.7409 155.562 42.3569C156.053 41.9515 156.298 41.3649 156.298 40.5969C156.298 39.8289 156.053 39.2422 155.562 38.8369C155.093 38.4315 154.41 38.2289 153.514 38.2289H149.93V42.9329ZM153.962 51.8929C154.879 51.8929 155.583 51.6902 156.074 51.2849C156.586 50.8582 156.842 50.2502 156.842 49.4609C156.842 48.6715 156.575 48.0529 156.042 47.6049C155.53 47.1569 154.815 46.9329 153.898 46.9329H149.93V51.8929H153.962ZM185.584 47.0929C185.584 47.6049 185.552 48.1382 185.488 48.6929H173.104C173.189 49.8022 173.541 50.6555 174.16 51.2529C174.8 51.8289 175.578 52.1169 176.496 52.1169C177.861 52.1169 178.81 51.5409 179.344 50.3889H185.168C184.869 51.5622 184.325 52.6182 183.536 53.5569C182.768 54.4955 181.797 55.2315 180.624 55.7649C179.45 56.2982 178.138 56.5649 176.688 56.5649C174.938 56.5649 173.381 56.1915 172.016 55.4449C170.65 54.6982 169.584 53.6315 168.816 52.2449C168.048 50.8582 167.664 49.2369 167.664 47.3809C167.664 45.5249 168.037 43.9035 168.784 42.5169C169.552 41.1302 170.618 40.0635 171.984 39.3169C173.349 38.5702 174.917 38.1969 176.688 38.1969C178.416 38.1969 179.952 38.5595 181.296 39.2849C182.64 40.0102 183.685 41.0449 184.432 42.3889C185.2 43.7329 185.584 45.3009 185.584 47.0929ZM179.984 45.6529C179.984 44.7142 179.664 43.9675 179.024 43.4129C178.384 42.8582 177.584 42.5809 176.624 42.5809C175.706 42.5809 174.928 42.8475 174.288 43.3809C173.669 43.9142 173.285 44.6715 173.136 45.6529H179.984ZM190.582 47.3489C190.582 45.5142 190.924 43.9035 191.606 42.5169C192.31 41.1302 193.26 40.0635 194.454 39.3169C195.649 38.5702 196.982 38.1969 198.454 38.1969C199.713 38.1969 200.812 38.4529 201.75 38.9649C202.71 39.4769 203.446 40.1489 203.958 40.9809V38.4529H209.43V56.3089H203.958V53.7809C203.425 54.6129 202.678 55.2849 201.718 55.7969C200.78 56.3089 199.681 56.5649 198.422 56.5649C196.972 56.5649 195.649 56.1915 194.454 55.4449C193.26 54.6769 192.31 53.5995 191.606 52.2129C190.924 50.8049 190.582 49.1835 190.582 47.3489ZM203.958 47.3809C203.958 46.0155 203.574 44.9382 202.806 44.1489C202.06 43.3595 201.142 42.9649 200.054 42.9649C198.966 42.9649 198.038 43.3595 197.27 44.1489C196.524 44.9169 196.15 45.9835 196.15 47.3489C196.15 48.7142 196.524 49.8022 197.27 50.6129C198.038 51.4022 198.966 51.7969 200.054 51.7969C201.142 51.7969 202.06 51.4022 202.806 50.6129C203.574 49.8235 203.958 48.7462 203.958 47.3809ZM234.221 38.4529V56.3089H228.749V53.8769C228.195 54.6662 227.437 55.3062 226.477 55.7969C225.539 56.2662 224.493 56.5009 223.341 56.5009C221.976 56.5009 220.771 56.2022 219.725 55.6049C218.68 54.9862 217.869 54.1009 217.293 52.9489C216.717 51.7969 216.429 50.4422 216.429 48.8849V38.4529H221.869V48.1489C221.869 49.3435 222.179 50.2715 222.797 50.9329C223.416 51.5942 224.248 51.9249 225.293 51.9249C226.36 51.9249 227.203 51.5942 227.821 50.9329C228.44 50.2715 228.749 49.3435 228.749 48.1489V38.4529H234.221ZM251.304 51.6689V56.3089H248.52C246.536 56.3089 244.989 55.8289 243.88 54.8689C242.77 53.8875 242.216 52.2982 242.216 50.1009V42.9969H240.04V38.4529H242.216V34.1009H247.688V38.4529H251.272V42.9969H247.688V50.1649C247.688 50.6982 247.816 51.0822 248.072 51.3169C248.328 51.5515 248.754 51.6689 249.352 51.6689H251.304ZM260.304 36.5969C259.344 36.5969 258.554 36.3195 257.936 35.7649C257.338 35.1889 257.04 34.4849 257.04 33.6529C257.04 32.7995 257.338 32.0955 257.936 31.5409C258.554 30.9649 259.344 30.6769 260.304 30.6769C261.242 30.6769 262.01 30.9649 262.608 31.5409C263.226 32.0955 263.536 32.7995 263.536 33.6529C263.536 34.4849 263.226 35.1889 262.608 35.7649C262.01 36.3195 261.242 36.5969 260.304 36.5969ZM263.024 38.4529V56.3089H257.552V38.4529H263.024ZM269.101 47.3809C269.101 45.5249 269.475 43.9035 270.221 42.5169C270.989 41.1302 272.045 40.0635 273.389 39.3169C274.755 38.5702 276.312 38.1969 278.061 38.1969C280.301 38.1969 282.168 38.7835 283.661 39.9569C285.176 41.1302 286.168 42.7835 286.637 44.9169H280.813C280.323 43.5515 279.373 42.8689 277.965 42.8689C276.963 42.8689 276.163 43.2635 275.565 44.0529C274.968 44.8209 274.669 45.9302 274.669 47.3809C274.669 48.8315 274.968 49.9515 275.565 50.7409C276.163 51.5089 276.963 51.8929 277.965 51.8929C279.373 51.8929 280.323 51.2102 280.813 49.8449H286.637C286.168 51.9355 285.176 53.5782 283.661 54.7729C282.147 55.9675 280.28 56.5649 278.061 56.5649C276.312 56.5649 274.755 56.1915 273.389 55.4449C272.045 54.6982 270.989 53.6315 270.221 52.2449C269.475 50.8582 269.101 49.2369 269.101 47.3809ZM309.596 47.0929C309.596 47.6049 309.564 48.1382 309.5 48.6929H297.116C297.202 49.8022 297.554 50.6555 298.172 51.2529C298.812 51.8289 299.591 52.1169 300.508 52.1169C301.874 52.1169 302.823 51.5409 303.356 50.3889H309.18C308.882 51.5622 308.338 52.6182 307.548 53.5569C306.78 54.4955 305.81 55.2315 304.636 55.7649C303.463 56.2982 302.151 56.5649 300.7 56.5649C298.951 56.5649 297.394 56.1915 296.028 55.4449C294.663 54.6982 293.596 53.6315 292.828 52.2449C292.06 50.8582 291.676 49.2369 291.676 47.3809C291.676 45.5249 292.05 43.9035 292.796 42.5169C293.564 41.1302 294.631 40.0635 295.996 39.3169C297.362 38.5702 298.93 38.1969 300.7 38.1969C302.428 38.1969 303.964 38.5595 305.308 39.2849C306.652 40.0102 307.698 41.0449 308.444 42.3889C309.212 43.7329 309.596 45.3009 309.596 47.0929ZM303.996 45.6529C303.996 44.7142 303.676 43.9675 303.036 43.4129C302.396 42.8582 301.596 42.5809 300.636 42.5809C299.719 42.5809 298.94 42.8475 298.3 43.3809C297.682 43.9142 297.298 44.6715 297.148 45.6529H303.996Z" fill="#091156"/>
</svg>
