<svg width="459" height="459" viewBox="0 0 459 459" fill="none" xmlns="http://www.w3.org/2000/svg">
<path d="M229.5 0C102.751 0 0 102.751 0 229.5C0 356.249 102.751 459 229.5 459C356.249 459 459 356.249 459 229.5C459 102.751 356.249 0 229.5 0ZM310.292 239.651L198.528 315.735C194.767 318.295 189.898 318.566 185.876 316.439C181.854 314.311 179.338 310.134 179.338 305.584V153.416C179.338 148.866 181.854 144.689 185.876 142.561C189.898 140.434 194.767 140.704 198.528 143.265L310.292 219.349C313.651 221.636 315.662 225.436 315.662 229.5C315.662 233.564 313.652 237.364 310.292 239.651Z" fill="#091156"/>
</svg>
